<?xml version="1.0" encoding="UTF-8"?>
<svg width="268.83mm" height="143.92mm" version="1.1" viewBox="0 0 268.83 143.92" xmlns="http://www.w3.org/2000/svg" xmlns:cc="http://creativecommons.org/ns#" xmlns:dc="http://purl.org/dc/elements/1.1/" xmlns:rdf="http://www.w3.org/1999/02/22-rdf-syntax-ns#">
 <metadata>
  <rdf:RDF>
   <cc:Work rdf:about="">
    <dc:format>image/svg+xml</dc:format>
    <dc:type rdf:resource="http://purl.org/dc/dcmitype/StillImage"/>
    <dc:title/>
   </cc:Work>
  </rdf:RDF>
 </metadata>
 <g transform="translate(29.348 -57.928)">
  <g transform="rotate(15 -747.85 -194.45)">
   <g transform="translate(290.79 -110.26)">
    <path d="m-247.7 2.8074v-25.804h15.53v19.775c0 9.1726 14.93 8.6062 16.366 14.279 1.4362 5.6723-2.9398 10.404-9.7104 9.774-6.2755-0.87101-22.186-7.8494-22.186-18.023z" style="fill:#ff8080"/>
    <path transform="scale(.26458)" d="m-932.08 16.502a20.888 20.888 0 0 0-3.5781 0.30859c2.0874 12.307 10.215 23.21 20.85 32.324a20.888 20.888 0 0 0 3.6152-11.744 20.888 20.888 0 0 0-20.887-20.889z" style="fill:#ffaaaa"/>
    <rect x="-247.7" y="-22.997" width="15.516" height="6.5843" style="fill:#ffaaaa"/>
    <path transform="scale(.26458)" d="m-932.08 16.502a20.888 20.888 0 0 0-3.5781 0.30859c2.0874 12.307 10.215 23.21 20.85 32.324a20.888 20.888 0 0 0 3.6152-11.744 20.888 20.888 0 0 0-20.887-20.889z" style="fill:#ffaaaa"/>
    <rect x="-247.7" y="-22.997" width="15.516" height="6.5843" style="fill:#ffaaaa"/>
   </g>
   <rect x="43.089" y="-134.33" width="15.516" height="6.9944" ry="1.2886" style="fill:#ffaaaa"/>
  </g>
  <g transform="rotate(15 -715.28 78.784)">
   <g transform="translate(290.79 -110.26)">
    <path d="m-247.7 2.8074v-25.804h15.53v19.775c0 9.1726 14.93 8.6062 16.366 14.279 1.4362 5.6723-2.9398 10.404-9.7104 9.774-6.2755-0.87101-22.186-7.8494-22.186-18.023z" style="fill:#ff8080"/>
    <path transform="scale(.26458)" d="m-932.08 16.502a20.888 20.888 0 0 0-3.5781 0.30859c2.0874 12.307 10.215 23.21 20.85 32.324a20.888 20.888 0 0 0 3.6152-11.744 20.888 20.888 0 0 0-20.887-20.889z" style="fill:#ffaaaa"/>
    <rect x="-247.7" y="-22.997" width="15.516" height="6.5843" style="fill:#ffaaaa"/>
    <path transform="scale(.26458)" d="m-932.08 16.502a20.888 20.888 0 0 0-3.5781 0.30859c2.0874 12.307 10.215 23.21 20.85 32.324a20.888 20.888 0 0 0 3.6152-11.744 20.888 20.888 0 0 0-20.887-20.889z" style="fill:#ffaaaa"/>
    <rect x="-247.7" y="-22.997" width="15.516" height="6.5843" style="fill:#ffaaaa"/>
   </g>
   <rect x="43.089" y="-134.33" width="15.516" height="6.9944" ry="1.2886" style="fill:#ffaaaa"/>
  </g>
  <g transform="rotate(15 -922.75 275.12)">
   <g transform="translate(290.79 -110.26)">
    <path d="m-247.7 2.8074v-25.804h15.53v19.775c0 9.1726 14.93 8.6062 16.366 14.279 1.4362 5.6723-2.9398 10.404-9.7104 9.774-6.2755-0.87101-22.186-7.8494-22.186-18.023z" style="fill:#ff8080"/>
    <path transform="scale(.26458)" d="m-932.08 16.502a20.888 20.888 0 0 0-3.5781 0.30859c2.0874 12.307 10.215 23.21 20.85 32.324a20.888 20.888 0 0 0 3.6152-11.744 20.888 20.888 0 0 0-20.887-20.889z" style="fill:#ffaaaa"/>
    <rect x="-247.7" y="-22.997" width="15.516" height="6.5843" style="fill:#ffaaaa"/>
    <path transform="scale(.26458)" d="m-932.08 16.502a20.888 20.888 0 0 0-3.5781 0.30859c2.0874 12.307 10.215 23.21 20.85 32.324a20.888 20.888 0 0 0 3.6152-11.744 20.888 20.888 0 0 0-20.887-20.889z" style="fill:#ffaaaa"/>
    <rect x="-247.7" y="-22.997" width="15.516" height="6.5843" style="fill:#ffaaaa"/>
   </g>
   <rect x="43.089" y="-134.33" width="15.516" height="6.9944" ry="1.2886" style="fill:#ffaaaa"/>
  </g>
  <g transform="rotate(-30 505.21 .3308)">
   <path d="m135.26-107.45v-25.804h15.53v19.775c0 9.1726 14.93 8.6062 16.366 14.279 1.4362 5.6723-2.9398 10.404-9.7104 9.774-6.2755-0.87101-22.186-7.8494-22.186-18.023z" style="fill:#ffdd55"/>
   <path d="m136.35-105.89a5.5266 5.5266 0 0 0-0.94671 0.0816c0.55228 3.2562 2.7026 6.141 5.5165 8.5524a5.5266 5.5266 0 0 0 0.95653-3.1073 5.5266 5.5266 0 0 0-5.5263-5.5268z" style="fill:#ffaaaa"/>
   <rect x="135.26" y="-133.26" width="15.516" height="6.5843" style="fill:#ffeeaa"/>
   <path d="m136.35-105.89a5.5266 5.5266 0 0 0-0.94671 0.0816c0.55228 3.2562 2.7026 6.141 5.5165 8.5524a5.5266 5.5266 0 0 0 0.95653-3.1073 5.5266 5.5266 0 0 0-5.5263-5.5268z" style="fill:#ffeeaa"/>
   <rect x="135.26" y="-133.26" width="15.516" height="6.5843" style="fill:#ffeeaa"/>
   <rect x="135.26" y="-134.33" width="15.516" height="6.9944" ry="1.2886" style="fill:#ffeeaa"/>
  </g>
  <g transform="rotate(15 -741.59 345.4)">
   <g transform="translate(290.79 -110.26)">
    <path d="m-247.7 2.8074v-25.804h15.53v19.775c0 9.1726 14.93 8.6062 16.366 14.279 1.4362 5.6723-2.9398 10.404-9.7104 9.774-6.2755-0.87101-22.186-7.8494-22.186-18.023z" style="fill:#ff8080"/>
    <path transform="scale(.26458)" d="m-932.08 16.502a20.888 20.888 0 0 0-3.5781 0.30859c2.0874 12.307 10.215 23.21 20.85 32.324a20.888 20.888 0 0 0 3.6152-11.744 20.888 20.888 0 0 0-20.887-20.889z" style="fill:#ffaaaa"/>
    <rect x="-247.7" y="-22.997" width="15.516" height="6.5843" style="fill:#ffaaaa"/>
    <path transform="scale(.26458)" d="m-932.08 16.502a20.888 20.888 0 0 0-3.5781 0.30859c2.0874 12.307 10.215 23.21 20.85 32.324a20.888 20.888 0 0 0 3.6152-11.744 20.888 20.888 0 0 0-20.887-20.889z" style="fill:#ffaaaa"/>
    <rect x="-247.7" y="-22.997" width="15.516" height="6.5843" style="fill:#ffaaaa"/>
   </g>
   <rect x="43.089" y="-134.33" width="15.516" height="6.9944" ry="1.2886" style="fill:#ffaaaa"/>
  </g>
  <g transform="rotate(-30 593.91 252.74)">
   <path d="m135.26-107.45v-25.804h15.53v19.775c0 9.1726 14.93 8.6062 16.366 14.279 1.4362 5.6723-2.9398 10.404-9.7104 9.774-6.2755-0.87101-22.186-7.8494-22.186-18.023z" style="fill:#ffdd55"/>
   <path d="m136.35-105.89a5.5266 5.5266 0 0 0-0.94671 0.0816c0.55228 3.2562 2.7026 6.141 5.5165 8.5524a5.5266 5.5266 0 0 0 0.95653-3.1073 5.5266 5.5266 0 0 0-5.5263-5.5268z" style="fill:#ffaaaa"/>
   <rect x="135.26" y="-133.26" width="15.516" height="6.5843" style="fill:#ffeeaa"/>
   <path d="m136.35-105.89a5.5266 5.5266 0 0 0-0.94671 0.0816c0.55228 3.2562 2.7026 6.141 5.5165 8.5524a5.5266 5.5266 0 0 0 0.95653-3.1073 5.5266 5.5266 0 0 0-5.5263-5.5268z" style="fill:#ffeeaa"/>
   <rect x="135.26" y="-133.26" width="15.516" height="6.5843" style="fill:#ffeeaa"/>
   <rect x="135.26" y="-134.33" width="15.516" height="6.9944" ry="1.2886" style="fill:#ffeeaa"/>
  </g>
  <g transform="rotate(15 -854.17 -5.846)">
   <g transform="translate(290.79 -110.26)">
    <path d="m-247.7 2.8074v-25.804h15.53v19.775c0 9.1726 14.93 8.6062 16.366 14.279 1.4362 5.6723-2.9398 10.404-9.7104 9.774-6.2755-0.87101-22.186-7.8494-22.186-18.023z" style="fill:#ff8080"/>
    <path transform="scale(.26458)" d="m-932.08 16.502a20.888 20.888 0 0 0-3.5781 0.30859c2.0874 12.307 10.215 23.21 20.85 32.324a20.888 20.888 0 0 0 3.6152-11.744 20.888 20.888 0 0 0-20.887-20.889z" style="fill:#ffaaaa"/>
    <rect x="-247.7" y="-22.997" width="15.516" height="6.5843" style="fill:#ffaaaa"/>
    <path transform="scale(.26458)" d="m-932.08 16.502a20.888 20.888 0 0 0-3.5781 0.30859c2.0874 12.307 10.215 23.21 20.85 32.324a20.888 20.888 0 0 0 3.6152-11.744 20.888 20.888 0 0 0-20.887-20.889z" style="fill:#ffaaaa"/>
    <rect x="-247.7" y="-22.997" width="15.516" height="6.5843" style="fill:#ffaaaa"/>
   </g>
   <rect x="43.089" y="-134.33" width="15.516" height="6.9944" ry="1.2886" style="fill:#ffaaaa"/>
  </g>
  <g transform="rotate(-15 858.75 236.78)">
   <path d="m90.943-107.45v-25.804h15.53v19.775c0 9.1726 14.93 8.6062 16.366 14.279 1.4362 5.6723-2.9398 10.404-9.7104 9.774-6.2755-0.87101-22.186-7.8494-22.186-18.023z" style="fill:#55ddff"/>
   <path d="m92.032-105.89a5.5266 5.5266 0 0 0-0.94671 0.0816c0.55228 3.2562 2.7026 6.141 5.5165 8.5524a5.5266 5.5266 0 0 0 0.95653-3.1073 5.5266 5.5266 0 0 0-5.5263-5.5268z" style="fill:#2ad4ff"/>
   <rect x="90.943" y="-133.26" width="15.516" height="6.5843" style="fill:#aaeeff"/>
   <path d="m92.032-105.89a5.5266 5.5266 0 0 0-0.94671 0.0816c0.55228 3.2562 2.7026 6.141 5.5165 8.5524a5.5266 5.5266 0 0 0 0.95653-3.1073 5.5266 5.5266 0 0 0-5.5263-5.5268z" style="fill:#aaeeff"/>
   <rect x="90.943" y="-133.26" width="15.516" height="6.5843" style="fill:#aaeeff"/>
   <rect x="90.943" y="-134.33" width="15.516" height="6.9944" ry="1.2886" style="fill:#aaeeff"/>
  </g>
  <g transform="rotate(-15 914.4 -57.703)">
   <path d="m90.943-107.45v-25.804h15.53v19.775c0 9.1726 14.93 8.6062 16.366 14.279 1.4362 5.6723-2.9398 10.404-9.7104 9.774-6.2755-0.87101-22.186-7.8494-22.186-18.023z" style="fill:#55ddff"/>
   <path d="m92.032-105.89a5.5266 5.5266 0 0 0-0.94671 0.0816c0.55228 3.2562 2.7026 6.141 5.5165 8.5524a5.5266 5.5266 0 0 0 0.95653-3.1073 5.5266 5.5266 0 0 0-5.5263-5.5268z" style="fill:#2ad4ff"/>
   <rect x="90.943" y="-133.26" width="15.516" height="6.5843" style="fill:#aaeeff"/>
   <path d="m92.032-105.89a5.5266 5.5266 0 0 0-0.94671 0.0816c0.55228 3.2562 2.7026 6.141 5.5165 8.5524a5.5266 5.5266 0 0 0 0.95653-3.1073 5.5266 5.5266 0 0 0-5.5263-5.5268z" style="fill:#aaeeff"/>
   <rect x="90.943" y="-133.26" width="15.516" height="6.5843" style="fill:#aaeeff"/>
   <rect x="90.943" y="-134.33" width="15.516" height="6.9944" ry="1.2886" style="fill:#aaeeff"/>
  </g>
  <g transform="rotate(-15 976.99 379.63)">
   <path d="m90.943-107.45v-25.804h15.53v19.775c0 9.1726 14.93 8.6062 16.366 14.279 1.4362 5.6723-2.9398 10.404-9.7104 9.774-6.2755-0.87101-22.186-7.8494-22.186-18.023z" style="fill:#55ddff"/>
   <path d="m92.032-105.89a5.5266 5.5266 0 0 0-0.94671 0.0816c0.55228 3.2562 2.7026 6.141 5.5165 8.5524a5.5266 5.5266 0 0 0 0.95653-3.1073 5.5266 5.5266 0 0 0-5.5263-5.5268z" style="fill:#2ad4ff"/>
   <rect x="90.943" y="-133.26" width="15.516" height="6.5843" style="fill:#aaeeff"/>
   <path d="m92.032-105.89a5.5266 5.5266 0 0 0-0.94671 0.0816c0.55228 3.2562 2.7026 6.141 5.5165 8.5524a5.5266 5.5266 0 0 0 0.95653-3.1073 5.5266 5.5266 0 0 0-5.5263-5.5268z" style="fill:#aaeeff"/>
   <rect x="90.943" y="-133.26" width="15.516" height="6.5843" style="fill:#aaeeff"/>
   <rect x="90.943" y="-134.33" width="15.516" height="6.9944" ry="1.2886" style="fill:#aaeeff"/>
  </g>
  <g transform="rotate(-30 568.64 106.84)">
   <path d="m135.26-107.45v-25.804h15.53v19.775c0 9.1726 14.93 8.6062 16.366 14.279 1.4362 5.6723-2.9398 10.404-9.7104 9.774-6.2755-0.87101-22.186-7.8494-22.186-18.023z" style="fill:#ffdd55"/>
   <path d="m136.35-105.89a5.5266 5.5266 0 0 0-0.94671 0.0816c0.55228 3.2562 2.7026 6.141 5.5165 8.5524a5.5266 5.5266 0 0 0 0.95653-3.1073 5.5266 5.5266 0 0 0-5.5263-5.5268z" style="fill:#ffaaaa"/>
   <rect x="135.26" y="-133.26" width="15.516" height="6.5843" style="fill:#ffeeaa"/>
   <path d="m136.35-105.89a5.5266 5.5266 0 0 0-0.94671 0.0816c0.55228 3.2562 2.7026 6.141 5.5165 8.5524a5.5266 5.5266 0 0 0 0.95653-3.1073 5.5266 5.5266 0 0 0-5.5263-5.5268z" style="fill:#ffeeaa"/>
   <rect x="135.26" y="-133.26" width="15.516" height="6.5843" style="fill:#ffeeaa"/>
   <rect x="135.26" y="-134.33" width="15.516" height="6.9944" ry="1.2886" style="fill:#ffeeaa"/>
  </g>
  <g transform="rotate(-30 653.02 -.74297)">
   <path d="m135.26-107.45v-25.804h15.53v19.775c0 9.1726 14.93 8.6062 16.366 14.279 1.4362 5.6723-2.9398 10.404-9.7104 9.774-6.2755-0.87101-22.186-7.8494-22.186-18.023z" style="fill:#ffdd55"/>
   <path d="m136.35-105.89a5.5266 5.5266 0 0 0-0.94671 0.0816c0.55228 3.2562 2.7026 6.141 5.5165 8.5524a5.5266 5.5266 0 0 0 0.95653-3.1073 5.5266 5.5266 0 0 0-5.5263-5.5268z" style="fill:#ffaaaa"/>
   <rect x="135.26" y="-133.26" width="15.516" height="6.5843" style="fill:#ffeeaa"/>
   <path d="m136.35-105.89a5.5266 5.5266 0 0 0-0.94671 0.0816c0.55228 3.2562 2.7026 6.141 5.5165 8.5524a5.5266 5.5266 0 0 0 0.95653-3.1073 5.5266 5.5266 0 0 0-5.5263-5.5268z" style="fill:#ffeeaa"/>
   <rect x="135.26" y="-133.26" width="15.516" height="6.5843" style="fill:#ffeeaa"/>
   <rect x="135.26" y="-134.33" width="15.516" height="6.9944" ry="1.2886" style="fill:#ffeeaa"/>
  </g>
  <g transform="rotate(-15 1162.7 -296.15)">
   <path d="m90.943-107.45v-25.804h15.53v19.775c0 9.1726 14.93 8.6062 16.366 14.279 1.4362 5.6723-2.9398 10.404-9.7104 9.774-6.2755-0.87101-22.186-7.8494-22.186-18.023z" style="fill:#55ddff"/>
   <path d="m92.032-105.89a5.5266 5.5266 0 0 0-0.94671 0.0816c0.55228 3.2562 2.7026 6.141 5.5165 8.5524a5.5266 5.5266 0 0 0 0.95653-3.1073 5.5266 5.5266 0 0 0-5.5263-5.5268z" style="fill:#2ad4ff"/>
   <rect x="90.943" y="-133.26" width="15.516" height="6.5843" style="fill:#aaeeff"/>
   <path d="m92.032-105.89a5.5266 5.5266 0 0 0-0.94671 0.0816c0.55228 3.2562 2.7026 6.141 5.5165 8.5524a5.5266 5.5266 0 0 0 0.95653-3.1073 5.5266 5.5266 0 0 0-5.5263-5.5268z" style="fill:#aaeeff"/>
   <rect x="90.943" y="-133.26" width="15.516" height="6.5843" style="fill:#aaeeff"/>
   <rect x="90.943" y="-134.33" width="15.516" height="6.9944" ry="1.2886" style="fill:#aaeeff"/>
  </g>
  <g transform="rotate(-30 617.81 173.77)">
   <path d="m135.26-107.45v-25.804h15.53v19.775c0 9.1726 14.93 8.6062 16.366 14.279 1.4362 5.6723-2.9398 10.404-9.7104 9.774-6.2755-0.87101-22.186-7.8494-22.186-18.023z" style="fill:#ffdd55"/>
   <path d="m136.35-105.89a5.5266 5.5266 0 0 0-0.94671 0.0816c0.55228 3.2562 2.7026 6.141 5.5165 8.5524a5.5266 5.5266 0 0 0 0.95653-3.1073 5.5266 5.5266 0 0 0-5.5263-5.5268z" style="fill:#ffaaaa"/>
   <rect x="135.26" y="-133.26" width="15.516" height="6.5843" style="fill:#ffeeaa"/>
   <path d="m136.35-105.89a5.5266 5.5266 0 0 0-0.94671 0.0816c0.55228 3.2562 2.7026 6.141 5.5165 8.5524a5.5266 5.5266 0 0 0 0.95653-3.1073 5.5266 5.5266 0 0 0-5.5263-5.5268z" style="fill:#ffeeaa"/>
   <rect x="135.26" y="-133.26" width="15.516" height="6.5843" style="fill:#ffeeaa"/>
   <rect x="135.26" y="-134.33" width="15.516" height="6.9944" ry="1.2886" style="fill:#ffeeaa"/>
  </g>
  <g transform="rotate(-15 996.93 -307.64)">
   <path d="m90.943-107.45v-25.804h15.53v19.775c0 9.1726 14.93 8.6062 16.366 14.279 1.4362 5.6723-2.9398 10.404-9.7104 9.774-6.2755-0.87101-22.186-7.8494-22.186-18.023z" style="fill:#55ddff"/>
   <path d="m92.032-105.89a5.5266 5.5266 0 0 0-0.94671 0.0816c0.55228 3.2562 2.7026 6.141 5.5165 8.5524a5.5266 5.5266 0 0 0 0.95653-3.1073 5.5266 5.5266 0 0 0-5.5263-5.5268z" style="fill:#2ad4ff"/>
   <rect x="90.943" y="-133.26" width="15.516" height="6.5843" style="fill:#aaeeff"/>
   <path d="m92.032-105.89a5.5266 5.5266 0 0 0-0.94671 0.0816c0.55228 3.2562 2.7026 6.141 5.5165 8.5524a5.5266 5.5266 0 0 0 0.95653-3.1073 5.5266 5.5266 0 0 0-5.5263-5.5268z" style="fill:#aaeeff"/>
   <rect x="90.943" y="-133.26" width="15.516" height="6.5843" style="fill:#aaeeff"/>
   <rect x="90.943" y="-134.33" width="15.516" height="6.9944" ry="1.2886" style="fill:#aaeeff"/>
  </g>
  <g transform="rotate(-30 542.14 -95.186)">
   <path d="m135.26-107.45v-25.804h15.53v19.775c0 9.1726 14.93 8.6062 16.366 14.279 1.4362 5.6723-2.9398 10.404-9.7104 9.774-6.2755-0.87101-22.186-7.8494-22.186-18.023z" style="fill:#ffdd55"/>
   <path d="m136.35-105.89a5.5266 5.5266 0 0 0-0.94671 0.0816c0.55228 3.2562 2.7026 6.141 5.5165 8.5524a5.5266 5.5266 0 0 0 0.95653-3.1073 5.5266 5.5266 0 0 0-5.5263-5.5268z" style="fill:#ffaaaa"/>
   <rect x="135.26" y="-133.26" width="15.516" height="6.5843" style="fill:#ffeeaa"/>
   <path d="m136.35-105.89a5.5266 5.5266 0 0 0-0.94671 0.0816c0.55228 3.2562 2.7026 6.141 5.5165 8.5524a5.5266 5.5266 0 0 0 0.95653-3.1073 5.5266 5.5266 0 0 0-5.5263-5.5268z" style="fill:#ffeeaa"/>
   <rect x="135.26" y="-133.26" width="15.516" height="6.5843" style="fill:#ffeeaa"/>
   <rect x="135.26" y="-134.33" width="15.516" height="6.9944" ry="1.2886" style="fill:#ffeeaa"/>
  </g>
  <g class="fg-color">
      <path d="m-2.7 61.048h215l22.673 118.45h-260z" style="fill:none;stroke-width:.7"/>
      <path d="m-5.5 58.193h220l24.084 124.97h-267.5z" style="fill:none;stroke-width:.7"/>
      <path d="m238.65 183.43v18.16h-267.61v-18.223" style="fill:none;stroke-width:.7"/>
      <circle cx="104.96" cy="192.64" r="3.6396" style="fill:none;stroke-width:.7"/>
  </g>
 </g>
</svg>
